# xmcd
#
# Track frame offsets:
#	150
#	19848
#	30846
#	48444
#	61542
#	80340
#	92538
#	106911
#	126834
#	142482
#	156780
#
# Disc length: 2262 seconds
#
# Revision: 1
# Processed by: cddbd v1.5.2PL0 Copyright (c) Steve Scherf et al.
# Submitted via: audiograbber 1.83.01
#
DISCID=8208d40b
DTITLE=Hanging Tree - Hanging Tree 004
DYEAR=2008
DGENRE=Country
TTITLE0=El Passo  - Mike Haduck
TTITLE1=From Here To There To You  - Bjarne Andersen
TTITLE2=Legend Of Alice  - Don Sandifer
TTITLE3=Reality  - Jim Fullen
TTITLE4=You Took My World Wirh You  - The Big River Bandits
TTITLE5=Hank and The Boys  - Ed Bentley
TTITLE6=I´m Your Toy  - Aubrey O´connell
TTITLE7=Singing For Mama Tonight  - Chuck Moore
TTITLE8=Woman From The North  - Ray Jones
TTITLE9=Cryatal Chandeliers  - Dean Holmen
TTITLE10=Some Rivers Run Dry  - Randall Cousins
EXTD=
EXTT0=
EXTT1=
EXTT2=
EXTT3=
EXTT4=
EXTT5=
EXTT6=
EXTT7=
EXTT8=
EXTT9=
EXTT10=
PLAYORDER=
